<svg xmlns="http://www.w3.org/2000/svg" width="343" height="343" viewBox="0 0 343 343">
  <path id="globe-line-option" d="M304.552,249.791a6.326,6.326,0,0,1,1.44.1,175.063,175.063,0,0,0,8.745-17.592c.1-.1.1-.206.206-.309a149.07,149.07,0,0,0,8.951-29.115,152.641,152.641,0,0,0,2.881-23.971H279.655c-.823,23.971-8.025,47.53-21.3,70.781h46.193Zm-8.23,15.02H248.894c-14.4,20.885-33.847,41.46-58.127,61.831,3.807-.514,7.613-1.132,11.317-1.852a145.7,145.7,0,0,0,29.424-9.156,167.8,167.8,0,0,0,26.852-14.506,154.93,154.93,0,0,0,38.065-36.316ZM150.336,326.642c-24.28-20.37-43.724-40.946-58.127-61.831H44.781a154.931,154.931,0,0,0,38.065,36.316A159.405,159.405,0,0,0,109.7,315.634c.1.1.206.1.309.206a149.07,149.07,0,0,0,29.115,8.951c3.7.72,7.51,1.337,11.317,1.852ZM34.9,249.791H82.641c-13.271-23.251-20.473-46.913-21.3-70.781H14.226a165.9,165.9,0,0,0,2.881,23.971A145.7,145.7,0,0,0,26.263,232.4,160.885,160.885,0,0,0,34.9,249.791Zm-20.679-85.8H61.654q2.623-35.185,23.457-70.781H34.9A160.886,160.886,0,0,0,26.263,110.6c-.1.1-.1.206-.206.309a149.071,149.071,0,0,0-8.951,29.115A152.642,152.642,0,0,0,14.226,163.99Zm30.452-85.8h50.1q21.45-30.864,56.584-62.036c-4.218.514-8.333,1.132-12.346,1.955A145.694,145.694,0,0,0,109.6,27.263,167.794,167.794,0,0,0,82.744,41.769,154.931,154.931,0,0,0,44.678,78.085ZM189.636,16.152q35.339,31.172,56.584,62.036h50.1a154.931,154.931,0,0,0-38.065-36.316A159.405,159.405,0,0,0,231.4,27.366c-.1-.1-.206-.1-.309-.206a149.07,149.07,0,0,0-29.115-8.951c-4.115-.823-8.23-1.44-12.346-1.955ZM306.1,93.209H255.89q20.833,35.648,23.457,70.781h47.427a165.9,165.9,0,0,0-2.881-23.971,145.694,145.694,0,0,0-9.156-29.424A160.885,160.885,0,0,0,306.1,93.209ZM136.035,3.4a176.632,176.632,0,0,1,68.929,0,159.841,159.841,0,0,1,32,9.876.78.78,0,0,1,.412.206,185.738,185.738,0,0,1,29.218,15.843A163.921,163.921,0,0,1,291.9,50.1a158.2,158.2,0,0,1,20.782,25.308,177.683,177.683,0,0,1,15.843,29.218A164.2,164.2,0,0,1,338.6,137.035a176.632,176.632,0,0,1,0,68.929,159.839,159.839,0,0,1-9.876,32,.78.78,0,0,1-.206.412,181.274,181.274,0,0,1-15.843,29.218A163.921,163.921,0,0,1,291.9,292.9a158.2,158.2,0,0,1-25.308,20.782,177.684,177.684,0,0,1-29.218,15.843A164.2,164.2,0,0,1,204.965,339.6a176.632,176.632,0,0,1-68.929,0,159.841,159.841,0,0,1-32-9.876.78.78,0,0,1-.412-.206,185.736,185.736,0,0,1-29.218-15.843A163.921,163.921,0,0,1,49.1,292.9a158.2,158.2,0,0,1-20.782-25.308,177.683,177.683,0,0,1-15.843-29.218A164.2,164.2,0,0,1,2.4,205.965a176.632,176.632,0,0,1,0-68.929,159.84,159.84,0,0,1,9.876-32,.78.78,0,0,1,.206-.412A181.276,181.276,0,0,1,28.321,75.411,163.92,163.92,0,0,1,49.1,50.1,158.2,158.2,0,0,1,74.411,29.321a177.685,177.685,0,0,1,29.218-15.843A164.2,164.2,0,0,1,136.035,3.4ZM178.01,25.926V78.188H227.8Q208.205,52.263,178.01,25.926Zm0,67.283V163.99h86.316q-2.932-34.876-26.029-70.781Zm0,85.8v70.781H240.87q22.376-35.185,23.765-70.781Zm0,85.8v52.88c21.3-17.49,38.786-35.185,52.366-52.88Zm-15.02,52.88v-52.88H110.624C124.1,282.507,141.591,300.2,162.99,317.692Zm0-67.9V179.01H76.365c.926,23.765,8.951,47.325,23.765,70.781Zm0-85.8V93.209H102.7Q79.555,129.165,76.674,163.99Zm0-85.8V25.926Q132.743,52.314,113.2,78.188Z" transform="translate(1)" fill="#707070"/>
</svg>
