<svg xmlns="http://www.w3.org/2000/svg" width="200" height="200" viewBox="0 0 200 200">
  <path id="plus-line" d="M92.042,7.9A7.628,7.628,0,0,1,92.654,4.9a7.426,7.426,0,0,1,1.725-2.56A7.857,7.857,0,0,1,100,0a7.628,7.628,0,0,1,3.005.612h.056a8.572,8.572,0,0,1,2.5,1.669A7.857,7.857,0,0,1,107.9,7.9V92.1h84.2a7.628,7.628,0,0,1,3.005.612h.056a8.572,8.572,0,0,1,2.5,1.669A7.857,7.857,0,0,1,200,100a7.628,7.628,0,0,1-.612,3.005,7.426,7.426,0,0,1-1.725,2.56,7.991,7.991,0,0,1-2.56,1.725,7.837,7.837,0,0,1-3.005.612H107.9v84.2a7.628,7.628,0,0,1-.612,3.005v.056a8.572,8.572,0,0,1-1.669,2.5A7.857,7.857,0,0,1,100,200a7.628,7.628,0,0,1-3.005-.612,7.426,7.426,0,0,1-2.56-1.725,7.99,7.99,0,0,1-1.725-2.56A7.837,7.837,0,0,1,92.1,192.1V107.9H7.9A7.628,7.628,0,0,1,4.9,107.29a7.426,7.426,0,0,1-2.56-1.725,7.991,7.991,0,0,1-1.725-2.56A7.837,7.837,0,0,1,0,100a7.628,7.628,0,0,1,.612-3.005,7.426,7.426,0,0,1,1.725-2.56A7.857,7.857,0,0,1,7.958,92.1h84.2V7.9Z" fill="#707070"/>
</svg>
